# xmcd
#
# Track frame offsets:
#	150
#	18219
#	31666
#	46096
#	59940
#	74132
#	95784
#	114899
#	133931
#	148770
#	171007
#	187195
#	207440
#	220716
#	239337
#	258508
#	276685
#
# Disc length: 3900 seconds
#
# Revision: 0
# Processed by: cddbd v1.5.2PL0 Copyright (c) Steve Scherf et al.
# Submitted via: audiograbber 1.83.01
#
DISCID=130f3a11
DTITLE=Генадий Белов - Травы, травы
DYEAR=1900
DGENRE=
TTITLE0=На дальней станции сойду
TTITLE1=Песня о моей любви
TTITLE2=Земляничное лето
TTITLE3=Колдует осень золотая
TTITLE4=Здравствуй, жаворонок-птица
TTITLE5=Этот большой мир
TTITLE6=Сестра ты моя, Ока
TTITLE7=Есть ли память у любви
TTITLE8=Лето
TTITLE9=Земля родимая
TTITLE10=Я так люблю тебя
TTITLE11=Маленький российский городок
TTITLE12=Где кончаются рельсы
TTITLE13=Синее небо России
TTITLE14=Гордая мама моя
TTITLE15=За седыми тополями
TTITLE16=Добрая столица
EXTD=
EXTT0=
EXTT1=
EXTT2=
EXTT3=
EXTT4=
EXTT5=
EXTT6=
EXTT7=
EXTT8=
EXTT9=
EXTT10=
EXTT11=
EXTT12=
EXTT13=
EXTT14=
EXTT15=
EXTT16=
PLAYORDER=
